<svg width="24px" height="24px" viewBox="0 0 1440 828" fill="none" xmlns="http://www.w3.org/2000/svg"><path d="M520.852 414C520.852 523.905 609.948 613 719.852 613C829.757 613 918.852 523.905 918.852 414C918.852 304.095 829.757 215 719.852 215C609.948 215 520.852 304.095 520.852 414Z" fill="white"/><path fill-rule="evenodd" clip-rule="evenodd" d="M719.852 601.759C616.156 601.759 532.093 517.696 532.093 414C532.093 310.304 616.156 226.241 719.852 226.241C823.549 226.241 907.611 310.304 907.611 414C907.611 517.696 823.549 601.759 719.852 601.759ZM719.852 613C609.948 613 520.852 523.905 520.852 414C520.852 304.095 609.948 215 719.852 215C829.757 215 918.852 304.095 918.852 414C918.852 523.905 829.757 613 719.852 613Z" fill="#855DCD"/><path fill-rule="evenodd" clip-rule="evenodd" d="M520.932 419.692C575.518 441.779 635.241 461.841 698.511 478.794C764.683 496.525 829.197 509.371 889.854 517.497C854.914 574.767 791.848 613 719.852 613C611.851 613 523.945 526.965 520.932 419.692Z" fill="white"/><path fill-rule="evenodd" clip-rule="evenodd" d="M520.932 419.692C575.518 441.779 635.241 461.841 698.511 478.794C764.683 496.525 829.197 509.371 889.854 517.497C854.914 574.767 791.848 613 719.852 613C611.851 613 523.945 526.965 520.932 419.692Z" fill="url(#paint0_linear_370_717)"/><path fill-rule="evenodd" clip-rule="evenodd" d="M520.932 419.692C521.049 423.863 521.294 428.001 521.664 432.104C530.811 533.524 616.05 613 719.852 613C787.388 613 847.067 579.356 883.043 527.915C885.418 524.518 887.69 521.044 889.854 517.497C885.801 516.954 881.731 516.39 877.644 515.804C820.567 507.633 760.261 495.34 698.511 478.794C639.631 463.017 583.823 444.548 532.368 424.26C528.532 422.748 524.719 421.225 520.932 419.692ZM533.458 436.761C544.69 529.721 623.86 601.759 719.852 601.759C781.506 601.759 836.23 572.048 870.473 526.122C814.593 517.891 755.763 505.772 695.601 489.652C638.305 474.299 583.87 456.407 533.458 436.761Z" fill="#855DCD"/><path fill-rule="evenodd" clip-rule="evenodd" d="M556.99 295.065C520.029 289.733 486.13 286.541 456.456 285.505C419.388 284.211 390.284 286.339 370.429 291.152C360.488 293.563 354.129 296.352 350.46 298.776C348.873 299.824 348.078 300.599 347.709 301.034C347.811 301.595 348.112 302.665 348.962 304.366C350.928 308.299 355.04 313.894 362.444 320.952C377.232 335.048 401.373 351.443 434.122 368.857C499.268 403.496 593.661 439.65 701.741 468.61C809.822 497.57 909.646 513.456 983.383 516.031C1020.45 517.325 1049.56 515.197 1069.41 510.383C1079.35 507.973 1085.71 505.184 1089.38 502.76C1090.97 501.712 1091.76 500.936 1092.13 500.501C1092.03 499.94 1091.73 498.871 1090.88 497.17C1088.91 493.236 1084.8 487.641 1077.4 480.584C1062.61 466.487 1038.47 450.093 1005.72 432.679C981.371 419.734 952.941 406.577 921.238 393.664C920.845 389.775 920.338 385.894 919.718 382.026C918.823 376.442 917.695 370.907 916.34 365.435C1043.52 415.471 1125.45 470.818 1115.8 506.844C1102.27 557.321 914.068 550.75 695.43 492.166C476.791 433.582 310.514 345.17 324.04 294.692C333.881 257.963 436.206 251.438 575.444 273.177C568.797 280.013 562.628 287.325 556.99 295.065ZM347.665 300.547C347.662 300.545 347.657 300.586 347.662 300.671C347.671 300.591 347.669 300.548 347.665 300.547ZM1092.41 500.101C1092.41 500.1 1092.38 500.136 1092.35 500.211C1092.4 500.139 1092.42 500.102 1092.41 500.101ZM1092.18 500.864C1092.17 500.945 1092.17 500.988 1092.17 500.989C1092.18 500.99 1092.18 500.95 1092.18 500.864ZM347.487 301.325C347.44 301.397 347.424 301.434 347.427 301.435C347.431 301.435 347.454 301.4 347.487 301.325Z" fill="white"/><path fill-rule="evenodd" clip-rule="evenodd" d="M563.007 309.337L567.714 302.876C572.981 295.644 578.745 288.812 584.955 282.426L602.846 264.028L577.491 260.069C507.353 249.119 445.827 245.164 400.17 248.784C377.422 250.587 357.802 254.326 342.825 260.518C328.13 266.593 315.26 276.199 311.225 291.258C308.459 301.582 310.619 311.87 315.28 321.197C319.891 330.426 327.288 339.461 336.464 348.207C354.826 365.71 382.376 383.988 416.445 402.103C484.775 438.435 582.003 475.508 691.996 504.981C801.989 534.453 904.727 550.961 982.069 553.661C1020.63 555.008 1053.63 552.954 1078.28 546.977C1090.6 543.99 1101.53 539.864 1110.13 534.178C1118.83 528.43 1125.85 520.6 1128.61 510.277C1132.57 495.503 1126.54 481.018 1117.19 468.606C1107.68 455.983 1093.11 443.191 1074.99 430.521C1038.62 405.09 985.273 378.298 921.197 353.089L897.284 343.682L903.462 368.624C904.728 373.737 905.782 378.908 906.619 384.126C907.198 387.74 907.671 391.366 908.039 394.999L908.842 402.939L916.234 405.95C947.603 418.728 975.614 431.698 999.488 444.392C1031.77 461.559 1054.71 477.291 1068.24 490.186C1070.3 492.146 1072 493.914 1073.41 495.484C1071.4 496.141 1069.04 496.821 1066.28 497.49C1048.12 501.893 1020.39 504.048 983.846 502.772C911.379 500.242 812.582 484.575 705.175 455.795C597.768 427.015 504.374 391.185 440.351 357.143C408.065 339.976 385.126 324.244 371.598 311.349C369.542 309.39 367.838 307.621 366.433 306.051C368.435 305.394 370.795 304.714 373.555 304.045C391.718 299.642 419.449 297.487 455.994 298.763C485.096 299.779 518.508 302.917 555.096 308.196L563.007 309.337ZM354.575 312.611C356.641 315.106 359.233 317.891 362.444 320.952C377.232 335.048 401.373 351.443 434.122 368.857C499.268 403.495 593.661 439.65 701.741 468.61C809.822 497.57 909.646 513.456 983.383 516.03C1020.45 517.325 1049.56 515.197 1069.41 510.383C1073.72 509.338 1077.36 508.221 1080.4 507.094C1080.6 507.018 1080.8 506.943 1081 506.867C1084.66 505.469 1087.41 504.062 1089.38 502.76C1090.43 502.067 1091.13 501.494 1091.59 501.059C1091.66 500.999 1091.72 500.942 1091.77 500.887C1091.79 500.867 1091.81 500.846 1091.83 500.826C1091.95 500.703 1092.05 500.594 1092.13 500.501C1092.11 500.381 1092.08 500.238 1092.03 500.071C1092.03 500.043 1092.02 500.015 1092.01 499.987C1091.99 499.912 1091.97 499.833 1091.94 499.75C1091.76 499.142 1091.44 498.294 1090.88 497.169C1089.82 495.057 1088.15 492.464 1085.67 489.423C1085.54 489.258 1085.4 489.092 1085.26 488.924C1083.2 486.429 1080.61 483.644 1077.4 480.583C1062.61 466.487 1038.47 450.092 1005.72 432.679C981.371 419.734 952.941 406.577 921.238 393.664C920.845 389.775 920.338 385.894 919.718 382.026C919.662 381.679 919.606 381.332 919.548 380.985C918.682 375.754 917.611 370.567 916.34 365.435C921.392 367.422 926.372 369.418 931.278 371.421C1049.89 419.837 1125.07 472.249 1115.8 506.843C1102.27 557.321 914.068 550.75 695.43 492.166C476.791 433.582 310.514 345.17 324.04 294.692C333.503 259.376 428.47 251.985 559.542 270.794C564.786 271.546 570.088 272.341 575.444 273.177C571.759 276.967 568.221 280.903 564.839 284.977C562.12 288.252 559.503 291.616 556.99 295.065C520.029 289.733 486.13 286.541 456.456 285.505C419.388 284.21 390.284 286.339 370.429 291.152C366.118 292.197 362.481 293.314 359.445 294.441C359.24 294.517 359.038 294.593 358.839 294.669C355.178 296.066 352.431 297.473 350.46 298.775C349.416 299.465 348.714 300.037 348.251 300.472C348.186 300.533 348.125 300.592 348.069 300.648C348.048 300.668 348.028 300.689 348.008 300.709M347.662 300.554C347.663 300.549 347.664 300.546 347.665 300.546C347.669 300.548 347.671 300.59 347.662 300.671C347.659 300.608 347.66 300.569 347.662 300.554ZM347.827 301.549C347.82 301.52 347.812 301.492 347.805 301.465C347.762 301.297 347.731 301.154 347.709 301.034M357.358 309.217L357.557 309.386C357.541 309.405 357.524 309.423 357.507 309.442L357.358 309.217ZM354.165 312.112C354.3 312.277 354.436 312.444 354.575 312.611ZM1092.18 500.981C1092.18 500.987 1092.18 500.989 1092.17 500.989C1092.17 500.988 1092.17 500.945 1092.18 500.864C1092.18 500.927 1092.18 500.965 1092.18 500.981C1092.18 500.981 1092.18 500.981 1092.18 500.981ZM347.427 301.434C347.426 301.434 347.427 301.431 347.429 301.426C347.435 301.411 347.452 301.377 347.487 301.325C347.454 301.399 347.431 301.435 347.427 301.434ZM354.165 312.112C351.693 309.071 350.018 306.479 348.962 304.366C348.399 303.239 348.077 302.389 347.894 301.781C347.869 301.699 347.847 301.622 347.827 301.549M357.358 309.217L357.507 309.442ZM355.714 306.729L358.324 308.443ZM1092.41 500.101C1092.41 500.1 1092.38 500.136 1092.35 500.21ZM1092.35 500.21C1092.39 500.157 1092.41 500.123 1092.41 500.109Z" fill="#855DCD"/><defs><linearGradient id="paint0_linear_370_717" x1="701.933" y1="478.714" x2="451.748" y2="1296.89" gradientUnits="userSpaceOnUse"><stop stop-color="#855DCD"/><stop offset="1" stop-color="#855DCD" stop-opacity="0"/></linearGradient></defs></svg>