<?xml version="1.0" encoding="UTF-8" standalone="no"?>
<svg
   xmlns:dc="http://purl.org/dc/elements/1.1/"
   xmlns:cc="http://creativecommons.org/ns#"
   xmlns:rdf="http://www.w3.org/1999/02/22-rdf-syntax-ns#"
   xmlns:svg="http://www.w3.org/2000/svg"
   xmlns="http://www.w3.org/2000/svg"
   xmlns:xlink="http://www.w3.org/1999/xlink"
   xmlns:sodipodi="http://sodipodi.sourceforge.net/DTD/sodipodi-0.dtd"
   xmlns:inkscape="http://www.inkscape.org/namespaces/inkscape"
   version="1.1"
   x="0"
   y="0"
   width="24px"
   height="24px"
   viewBox="0 0 518.80219 482.70047"
   id="svg2"
   inkscape:version="0.91 r13725"
   sodipodi:docname="dao-purple.svg">
  <metadata
     id="metadata11">
    <rdf:RDF>
      <cc:Work
         rdf:about="">
        <dc:format>image/svg+xml</dc:format>
        <dc:type
           rdf:resource="http://purl.org/dc/dcmitype/StillImage" />
        <dc:title></dc:title>
        <dc:creator>
          <cc:Agent>
            <dc:title>j4p4n</dc:title>
          </cc:Agent>
        </dc:creator>
        <cc:license
           rdf:resource="http://creativecommons.org/publicdomain/zero/1.0/" />
      </cc:Work>
      <cc:License
         rdf:about="http://creativecommons.org/publicdomain/zero/1.0/">
        <cc:permits
           rdf:resource="http://creativecommons.org/ns#Reproduction" />
        <cc:permits
           rdf:resource="http://creativecommons.org/ns#Distribution" />
        <cc:permits
           rdf:resource="http://creativecommons.org/ns#DerivativeWorks" />
      </cc:License>
    </rdf:RDF>
  </metadata>
  <defs
     id="defs9">
    <linearGradient
       inkscape:collect="always"
       id="linearGradient4145">
      <stop
         style="stop-color:#d8f3e9;stop-opacity:1;"
         offset="0"
         id="stop4147" />
      <stop
         style="stop-color:#d8f3e9;stop-opacity:0;"
         offset="1"
         id="stop4149" />
    </linearGradient>
    <radialGradient
       inkscape:collect="always"
       xlink:href="#linearGradient4145"
       id="radialGradient4151"
       cx="143.82201"
       cy="141.45"
       fx="143.82201"
       fy="141.45"
       r="135.14999"
       gradientTransform="matrix(1,0,0,0.95116537,0,6.9076582)"
       gradientUnits="userSpaceOnUse" />
    <radialGradient
       inkscape:collect="always"
       xlink:href="#linearGradient4145"
       id="radialGradient4153"
       gradientUnits="userSpaceOnUse"
       gradientTransform="matrix(1,0,0,0.95116537,0,6.9076582)"
       cx="143.82201"
       cy="141.45"
       fx="143.82201"
       fy="141.45"
       r="135.14999" />
  </defs>
  <sodipodi:namedview
     pagecolor="#ffffff"
     bordercolor="#666666"
     borderopacity="1"
     objecttolerance="10"
     gridtolerance="10"
     guidetolerance="10"
     inkscape:pageopacity="0"
     inkscape:pageshadow="2"
     inkscape:window-width="1916"
     inkscape:window-height="1035"
     id="namedview7"
     showgrid="false"
     fit-margin-top="0"
     fit-margin-left="0"
     fit-margin-right="0"
     fit-margin-bottom="0"
     inkscape:zoom="0.78666667"
     inkscape:cx="43.934964"
     inkscape:cy="240.7146"
     inkscape:window-x="4"
     inkscape:window-y="1"
     inkscape:window-maximized="1"
     inkscape:current-layer="svg2" />
  <rect
     style="opacity:1;fill:#a16bdd;fill-opacity:1;stroke:#713eb3;stroke-width:4.54181862;stroke-linecap:round;stroke-linejoin:round;stroke-miterlimit:4;stroke-dasharray:none;stroke-opacity:1"
     id="rect4139"
     width="382.80258"
     height="344.04797"
     x="-287.92395"
     y="-508.73425"
     ry="0"
     transform="matrix(-0.87664214,0.48114298,-0.51909692,-0.85471538,0,0)" />
  <g
     id="Layer_1"
     style="fill:#b3d1c6;fill-opacity:1;stroke:#713eb3;stroke-width:3;stroke-miterlimit:4;stroke-dasharray:none;stroke-opacity:1"
     transform="translate(113.85022,91.98588)">
    <path
       d="m 217.172,28.8 q 0,1.8 -1.35,3.9 -1.35,2.1 -4.95,4.5 l -18.6,12.3 q -14.7,10.2 -16.8,11.7 -2.1,1.5 -4.05,1.5 -1.95,0 -1.95,-1.95 0,-1.95 2.1,-4.65 18.9,-22.5 18.9,-30 0,-1.2 -0.6,-3.45 -0.6,-2.25 -0.6,-5.25 0,-3 4.05,-3 4.05,0 13.95,4.5 9.9,4.5 9.9,9.9 z m -89.7,2.7 q 3,0 10.65,3.75 7.65,3.75 10.35,9.45 2.7,5.7 2.7,9.75 0,4.05 -2.25,6.45 -2.25,2.4 -5.25,2.4 -6,0 -12.6,-12.15 -6.6,-12.15 -6.6,-15.9 0,-3.75 3,-3.75 z m -84,15.3 q 15.3,0 25.5,6.6 10.2,6.6 10.2,17.7 0,4.5 -2.1,7.2 -2.1,2.7 -5.7,2.7 -6,0 -20.1,-14.1 -14.1,-14.1 -14.1,-17.1 0,-3 6.3,-3 z m 105.9,39.6 q -9.6,1.2 -19.35,3.6 -9.75,2.4 -14.4,2.4 -4.65,0 -10.35,-1.8 -5.7,-1.8 -5.7,-3.9 0,-3 14.4,-4.2 81,-13.5 91.05,-16.2 10.05,-2.7 19.05,-2.7 9,0 15.15,4.35 6.15,4.35 6.15,7.05 0,2.7 -4.2,3.9 -4.2,1.2 -13.2,1.2 l -8.1,0 q -25.5,0 -58.5,4.5 6,6.3 6,8.55 0,2.25 -3.3,5.55 -5.4,4.8 -14.4,17.7 20.1,-2.4 33.3,-7.5 7.2,-3 11.55,-3 4.35,0 12.75,4.8 8.4,4.8 8.4,8.85 0,4.05 -3,8.7 -3,4.65 -3,21 0,16.35 1.05,27.45 1.05,11.1 1.05,21.45 0,10.35 -4.65,21.3 -4.65,10.95 -7.95,10.95 -3.3,0 -7.2,-13.5 -1.8,-6 -3.9,-7.95 -2.1,-1.95 -8.4,-1.95 -6.3,0 -20.55,1.5 -14.25,1.5 -24.45,3.3 -0.9,9.9 -4.05,9.9 -3.15,0 -6.6,-7.65 -3.45,-7.65 -3.45,-12.15 0,-4.5 1.65,-11.55 1.65,-7.05 1.65,-28.65 0,-31.2 -3,-37.2 -2.1,-3.9 -2.1,-6.3 0,-2.4 2.4,-2.4 2.4,0 6.6,2.1 8.7,0 13.2,-0.6 9.3,-16.5 9.3,-26.1 0,-2.7 -0.9,-4.8 z m -14.1,118.2 q 36.3,-7.8 42.45,-7.8 6.15,0 9.15,2.25 3,2.25 3.9,2.25 3,0 3.75,-8.25 0.75,-8.25 0.75,-28.95 0,-20.7 -1.05,-30.6 -1.05,-9.9 -2.7,-12.6 -1.65,-2.7 -7.05,-2.7 -2.4,0 -21.75,3 -19.35,3 -28.95,3 1.5,10.8 1.8,21.9 26.4,-8.1 31.95,-8.1 5.55,0 9.15,1.2 3.6,1.2 3.6,3.3 0,3.6 -11.7,6.3 -11.7,2.7 -19.5,2.7 -7.8,0 -13.5,-0.9 0.3,6.3 0.3,21.9 30.6,-6.6 34.65,-6.6 4.05,0 7.35,1.5 3.3,1.5 3.3,3.3 0,1.8 -2.25,3.15 -2.25,1.35 -12.3,3.15 -10.05,1.8 -17.25,1.8 -7.2,0 -13.8,-0.6 0.3,9.6 -0.3,26.4 z m -67.8,7.2 q 7.5,1.5 22.5,6.6 42,14.1 65.7,18.75 23.7,4.65 44.85,4.65 21.15,0 39.15,-1.2 l 31.2,-2.1 q 6.6,0 6.6,3.3 0,1.2 -1.2,2.25 -1.2,1.05 -10.35,4.65 -9.15,3.6 -27.6,9.9 -18.45,6.3 -25.05,8.1 -6.6,1.8 -10.2,1.8 -21.6,0 -64.2,-17.4 l -35.7,-14.7 q -20.7,-8.4 -25.2,-10.2 -4.5,-1.8 -10.2,-2.85 -5.7,-1.05 -11.4,-1.05 -13.8,0 -26.1,5.7 -4.5,1.8 -7.5,1.8 -3,0 -7.8,-5.55 -4.8,-5.55 -4.8,-8.4 0,-2.85 11.4,-4.65 11.4,-1.8 21.3,-1.8 9.9,0 16.2,0.6 -0.6,-19.8 -6.3,-30 -6,-11.4 -6,-19.5 0,-8.1 3.9,-16.95 3.9,-8.85 3.9,-10.5 0,-1.65 -1.95,-1.65 -1.95,0 -7.65,2.4 -5.7,2.4 -12.45,2.4 -6.75,0 -10.8,-1.05 -4.05,-1.05 -4.05,-3.15 0,-2.1 5.55,-3.3 5.55,-1.2 15.75,-5.7 10.2,-4.5 12.6,-6.75 2.4,-2.25 5.7,-2.25 3.3,0 12.75,5.55 9.45,5.55 9.45,10.95 0,3 -3.3,6 -15.9,13.8 -15.9,28.2 0,6 2.7,11.1 6.9,12.3 6.9,20.1 0,7.8 -2.4,15.9 z"
       id="path5"
       style="fill:#b3d1c6;fill-opacity:1;stroke:#713eb3;stroke-width:3;stroke-miterlimit:4;stroke-dasharray:none;stroke-opacity:1"
       inkscape:connector-curvature="0" />
  </g>
  <g
     style="fill:url(#radialGradient4151);fill-opacity:1;stroke:#713eb3;stroke-width:3;stroke-miterlimit:4;stroke-dasharray:none;stroke-opacity:1"
     id="g4141"
     transform="translate(113.85022,91.98588)">
    <path
       style="fill:url(#radialGradient4153);fill-opacity:1;stroke:#713eb3;stroke-width:3;stroke-miterlimit:4;stroke-dasharray:none;stroke-opacity:1"
       id="path4143"
       d="m 217.172,28.8 q 0,1.8 -1.35,3.9 -1.35,2.1 -4.95,4.5 l -18.6,12.3 q -14.7,10.2 -16.8,11.7 -2.1,1.5 -4.05,1.5 -1.95,0 -1.95,-1.95 0,-1.95 2.1,-4.65 18.9,-22.5 18.9,-30 0,-1.2 -0.6,-3.45 -0.6,-2.25 -0.6,-5.25 0,-3 4.05,-3 4.05,0 13.95,4.5 9.9,4.5 9.9,9.9 z m -89.7,2.7 q 3,0 10.65,3.75 7.65,3.75 10.35,9.45 2.7,5.7 2.7,9.75 0,4.05 -2.25,6.45 -2.25,2.4 -5.25,2.4 -6,0 -12.6,-12.15 -6.6,-12.15 -6.6,-15.9 0,-3.75 3,-3.75 z m -84,15.3 q 15.3,0 25.5,6.6 10.2,6.6 10.2,17.7 0,4.5 -2.1,7.2 -2.1,2.7 -5.7,2.7 -6,0 -20.1,-14.1 -14.1,-14.1 -14.1,-17.1 0,-3 6.3,-3 z m 105.9,39.6 q -9.6,1.2 -19.35,3.6 -9.75,2.4 -14.4,2.4 -4.65,0 -10.35,-1.8 -5.7,-1.8 -5.7,-3.9 0,-3 14.4,-4.2 81,-13.5 91.05,-16.2 10.05,-2.7 19.05,-2.7 9,0 15.15,4.35 6.15,4.35 6.15,7.05 0,2.7 -4.2,3.9 -4.2,1.2 -13.2,1.2 l -8.1,0 q -25.5,0 -58.5,4.5 6,6.3 6,8.55 0,2.25 -3.3,5.55 -5.4,4.8 -14.4,17.7 20.1,-2.4 33.3,-7.5 7.2,-3 11.55,-3 4.35,0 12.75,4.8 8.4,4.8 8.4,8.85 0,4.05 -3,8.7 -3,4.65 -3,21 0,16.35 1.05,27.45 1.05,11.1 1.05,21.45 0,10.35 -4.65,21.3 -4.65,10.95 -7.95,10.95 -3.3,0 -7.2,-13.5 -1.8,-6 -3.9,-7.95 -2.1,-1.95 -8.4,-1.95 -6.3,0 -20.55,1.5 -14.25,1.5 -24.45,3.3 -0.9,9.9 -4.05,9.9 -3.15,0 -6.6,-7.65 -3.45,-7.65 -3.45,-12.15 0,-4.5 1.65,-11.55 1.65,-7.05 1.65,-28.65 0,-31.2 -3,-37.2 -2.1,-3.9 -2.1,-6.3 0,-2.4 2.4,-2.4 2.4,0 6.6,2.1 8.7,0 13.2,-0.6 9.3,-16.5 9.3,-26.1 0,-2.7 -0.9,-4.8 z m -14.1,118.2 q 36.3,-7.8 42.45,-7.8 6.15,0 9.15,2.25 3,2.25 3.9,2.25 3,0 3.75,-8.25 0.75,-8.25 0.75,-28.95 0,-20.7 -1.05,-30.6 -1.05,-9.9 -2.7,-12.6 -1.65,-2.7 -7.05,-2.7 -2.4,0 -21.75,3 -19.35,3 -28.95,3 1.5,10.8 1.8,21.9 26.4,-8.1 31.95,-8.1 5.55,0 9.15,1.2 3.6,1.2 3.6,3.3 0,3.6 -11.7,6.3 -11.7,2.7 -19.5,2.7 -7.8,0 -13.5,-0.9 0.3,6.3 0.3,21.9 30.6,-6.6 34.65,-6.6 4.05,0 7.35,1.5 3.3,1.5 3.3,3.3 0,1.8 -2.25,3.15 -2.25,1.35 -12.3,3.15 -10.05,1.8 -17.25,1.8 -7.2,0 -13.8,-0.6 0.3,9.6 -0.3,26.4 z m -67.8,7.2 q 7.5,1.5 22.5,6.6 42,14.1 65.7,18.75 23.7,4.65 44.85,4.65 21.15,0 39.15,-1.2 l 31.2,-2.1 q 6.6,0 6.6,3.3 0,1.2 -1.2,2.25 -1.2,1.05 -10.35,4.65 -9.15,3.6 -27.6,9.9 -18.45,6.3 -25.05,8.1 -6.6,1.8 -10.2,1.8 -21.6,0 -64.2,-17.4 l -35.7,-14.7 q -20.7,-8.4 -25.2,-10.2 -4.5,-1.8 -10.2,-2.85 -5.7,-1.05 -11.4,-1.05 -13.8,0 -26.1,5.7 -4.5,1.8 -7.5,1.8 -3,0 -7.8,-5.55 -4.8,-5.55 -4.8,-8.4 0,-2.85 11.4,-4.65 11.4,-1.8 21.3,-1.8 9.9,0 16.2,0.6 -0.6,-19.8 -6.3,-30 -6,-11.4 -6,-19.5 0,-8.1 3.9,-16.95 3.9,-8.85 3.9,-10.5 0,-1.65 -1.95,-1.65 -1.95,0 -7.65,2.4 -5.7,2.4 -12.45,2.4 -6.75,0 -10.8,-1.05 -4.05,-1.05 -4.05,-3.15 0,-2.1 5.55,-3.3 5.55,-1.2 15.75,-5.7 10.2,-4.5 12.6,-6.75 2.4,-2.25 5.7,-2.25 3.3,0 12.75,5.55 9.45,5.55 9.45,10.95 0,3 -3.3,6 -15.9,13.8 -15.9,28.2 0,6 2.7,11.1 6.9,12.3 6.9,20.1 0,7.8 -2.4,15.9 z"
       inkscape:connector-curvature="0" />
  </g>
</svg>
